# xmcd
#
# Track frame offsets: 
#        150
#        42305
#        68604
#        92373
#        129162
#        165615
#        199914
#        237295
#        266586
#
# Disc length: 4104 seconds
#
# Revision: 1
# Processed by: cddbd v1.5.2PL0 Copyright (c) Steve Scherf et al.
# Submitted via: ExactAudioCopyFreeDBPlugin 1.0
#
DISCID=6f100609
DTITLE=Various Artist - Philly ReGrooved:  Tom Moulton Remixes
DYEAR=2013
DGENRE=Soul
TTITLE0=William DeVaughn - Be Thankful for What You've Got
TTITLE1=The Spinners - One of a Kind (Love Affair)
TTITLE2=New York City - Quick, Fast, in a Hurry
TTITLE3=The Ebonys - Making Love Ain't No Fun (Without the One You Lov
TTITLE3=e)
TTITLE4=Loose Change - Babe
TTITLE5=David Morris Jr. - Jack in the Box
TTITLE6=Bettye Swann - Kiss My Love Goodbye
TTITLE7=The Trammps - Hold Back the Night
TTITLE8=Double Exposure - Soul Recession
EXTD=
EXTT0=
EXTT1=
EXTT2=
EXTT3=
EXTT4=
EXTT5=
EXTT6=
EXTT7=
EXTT8=
PLAYORDER=
